<!-- Generated by IcoMoon.io -->
<svg version="1.1" xmlns="http://www.w3.org/2000/svg" width="768" height="768" viewBox="0 0 768 768">
<title></title>
<g id="icomoon-ignore">
</g>
<path d="M479.552 493.568l24 180.864-103.072-61.856c-9.952-5.888-22.496-6.272-32.928 0l-103.072 61.856 24.032-180.832c29.472 11.872 61.728 18.4 95.488 18.4s66.016-6.56 95.552-18.432zM490.624 415.712c-1.856 0.96-3.616 2.080-5.216 3.36-29.44 18.336-64.16 28.928-101.408 28.928-53.024 0-100.992-21.44-135.776-56.224s-56.224-82.752-56.224-135.776 21.44-100.992 56.224-135.776 82.752-56.224 135.776-56.224 100.992 21.44 135.776 56.224 56.224 82.752 56.224 135.776-21.44 100.992-56.224 135.776c-8.896 8.896-18.656 16.928-29.152 23.936zM228.48 459.36l-36.192 272.416c-2.336 17.504 9.984 33.6 27.52 35.936 7.488 0.992 14.752-0.704 20.672-4.288l143.52-86.112 143.552 86.112c15.168 9.088 34.816 4.192 43.904-10.976 3.904-6.496 5.216-13.792 4.288-20.672l-36.16-272.48c8.96-6.88 17.472-14.336 25.44-22.304 46.272-46.272 74.976-110.304 74.976-180.992s-28.704-134.72-74.976-181.024-110.336-74.976-181.024-74.976-134.72 28.704-181.024 74.976-74.976 110.336-74.976 181.024 28.704 134.72 74.976 181.024c8 8 16.512 15.456 25.472 22.336z"></path>
</svg>
