<?xml version="1.0" standalone="no"?>
<!DOCTYPE svg PUBLIC "-//W3C//DTD SVG 20010904//EN"
 "http://www.w3.org/TR/2001/REC-SVG-20010904/DTD/svg10.dtd">
<svg version="1.0" xmlns="http://www.w3.org/2000/svg"
 width="816.000000pt" height="816.000000pt" viewBox="0 0 816.000000 816.000000"
 preserveAspectRatio="xMidYMid meet">
<metadata>
Created by potrace 1.14, written by Peter Selinger 2001-2017
</metadata>
<g transform="translate(0.000000,816.000000) scale(0.100000,-0.100000)"
fill="#000000" stroke="none">
<path d="M6067 6790 c-95 -24 -225 -115 -242 -171 -4 -11 -11 -19 -16 -19 -5
0 -9 -8 -9 -18 0 -10 -4 -22 -9 -27 -12 -14 -33 -104 -26 -116 4 -5 1 -9 -5
-9 -6 0 -9 -4 -6 -8 3 -5 7 -31 10 -58 7 -71 16 -103 43 -154 51 -93 149 -170
254 -198 48 -13 194 -9 247 7 278 80 369 444 166 661 -44 47 -132 99 -183 108
-56 9 -188 10 -224 2z"/>
<path d="M1826 6483 c-1 -2 -50 -5 -107 -8 -129 -5 -265 -17 -354 -29 -67 -10
-201 -34 -227 -42 -9 -3 -25 -7 -35 -9 -10 -2 -58 -15 -107 -30 -150 -44 -228
-98 -264 -185 -20 -48 -20 -72 -20 -2167 0 -2111 0 -2118 20 -2181 25 -74 86
-144 168 -192 58 -34 251 -99 340 -114 14 -3 50 -10 80 -16 30 -6 71 -13 90
-16 19 -2 51 -7 70 -9 169 -26 804 -45 1000 -31 98 8 196 17 220 21 36 6 110
17 145 21 198 22 584 145 765 242 163 88 253 147 384 252 28 22 197 191 228
227 130 152 276 397 353 593 9 25 21 54 25 65 12 29 23 59 25 65 0 3 9 32 20
65 10 33 19 62 20 65 38 157 55 231 59 255 3 17 10 59 16 95 6 36 13 81 15
100 2 19 4 35 5 35 2 0 6 60 16 215 13 214 8 485 -12 635 -3 22 -7 54 -9 70
-18 157 -75 391 -131 543 -50 135 -151 334 -229 454 -37 56 -72 106 -78 113
-7 6 -23 27 -37 45 -49 65 -200 225 -200 212 0 -4 -5 1 -10 10 -30 50 -287
231 -452 317 -187 98 -480 203 -659 236 -13 3 -44 9 -69 14 -54 12 -101 20
-155 27 -22 3 -51 7 -65 10 -14 3 -47 8 -75 10 -27 3 -77 7 -110 10 -64 6
-654 12 -659 7z m539 -547 c77 -5 99 -8 195 -21 247 -33 522 -123 725 -238 43
-24 163 -104 182 -121 6 -6 25 -22 42 -35 36 -27 141 -130 188 -183 28 -31
137 -188 170 -243 40 -68 136 -281 148 -330 1 -5 5 -17 8 -25 5 -14 14 -51 18
-75 1 -5 6 -21 11 -35 5 -14 11 -38 14 -55 2 -16 6 -41 10 -55 3 -14 8 -36 9
-50 2 -14 7 -45 10 -70 29 -210 27 -675 -5 -850 -4 -25 -8 -52 -8 -60 0 -8 -3
-26 -6 -40 -4 -14 -8 -36 -11 -50 -3 -14 -7 -36 -10 -50 -3 -14 -7 -37 -10
-52 -3 -15 -9 -38 -15 -52 -5 -15 -7 -26 -4 -26 2 0 0 -8 -5 -18 -6 -11 -12
-30 -15 -43 -13 -65 -134 -354 -154 -369 -4 -3 -12 -16 -19 -30 -38 -86 -204
-282 -323 -381 -68 -57 -190 -139 -207 -139 -7 0 -13 -4 -13 -9 0 -27 -349
-156 -505 -186 -106 -20 -160 -28 -290 -41 -84 -9 -517 -9 -650 -1 -169 11
-322 31 -437 58 l-46 11 -2 81 c-2 101 -2 82 0 208 1 58 0 109 -1 115 -1 5 -1
14 0 19 1 6 2 39 2 75 -1 65 0 276 1 295 0 6 -1 26 -2 45 -1 19 -1 378 -1 798
0 419 0 768 0 775 0 6 0 60 1 118 1 58 0 109 -1 115 -1 5 -1 14 1 19 1 6 1 57
0 115 -1 58 -2 110 -2 115 0 6 1 58 2 116 1 58 0 109 -1 115 -1 5 -1 14 1 19
1 6 1 57 0 115 -1 58 -2 110 -2 115 0 6 1 58 2 116 1 58 0 109 -1 115 -1 5 -1
11 0 14 1 3 3 47 4 99 2 105 -7 94 87 107 25 3 63 9 85 13 23 4 51 7 63 6 12
-1 22 1 22 4 0 3 19 7 43 7 66 2 322 16 324 18 4 3 305 -3 378 -8z"/>
<path d="M6168 5275 c-2 -2 -34 -4 -73 -6 -38 -2 -74 -6 -80 -10 -5 -3 -17 -7
-25 -7 -24 -1 -102 -22 -119 -32 -14 -8 -16 -174 -16 -1727 0 -945 3 -1740 7
-1768 10 -65 44 -131 82 -158 17 -11 33 -24 36 -27 3 -3 12 -7 20 -9 8 -2 38
-10 65 -18 101 -28 248 -19 380 23 l50 15 -1 1752 c-1 964 -4 1759 -6 1767
-20 71 -71 135 -129 164 -17 8 -58 20 -92 26 -34 6 -70 13 -79 15 -9 1 -18 2
-20 0z"/>
<path d="M7581 2304 c-81 -21 -121 -43 -178 -100 -91 -90 -132 -203 -128 -351
4 -127 43 -221 129 -308 75 -76 180 -113 312 -110 106 3 148 12 210 45 68 36
77 44 129 113 59 78 86 165 86 277 0 231 -124 403 -319 440 -67 12 -178 10
-241 -6z"/>
</g>
</svg>
