<!-- Generated by IcoMoon.io -->
<svg version="1.1" xmlns="http://www.w3.org/2000/svg" width="768" height="768" viewBox="0 0 768 768">
<title></title>
<g id="icomoon-ignore">
</g>
<path d="M142.496 298.688c23.584-66.656 71.904-117.408 131.072-145.664s129.024-33.888 195.648-10.304c37.952 13.44 70.592 34.816 95.456 60.16l90.56 85.12h-111.232c-17.664 0-32 14.336-32 32s14.336 32 32 32h191.904c0.16 0 0.288 0 0.448 0 4.384-0.032 8.576-0.992 12.352-2.624 3.808-1.632 7.328-4.032 10.368-7.2 0.384-0.416 0.768-0.832 1.152-1.248 2.4-2.784 4.256-5.856 5.536-9.12s2.048-6.752 2.208-10.432c0.032-0.48 0.032-0.928 0.032-1.376v-192c0-17.664-14.336-32-32-32s-32 14.336-32 32v118.048l-93.632-87.968c-31.744-32.32-72.672-58.976-119.776-75.648-83.296-29.472-170.72-22.368-244.576 12.864s-134.368 98.752-163.84 182.048c-5.92 16.64 2.816 34.912 19.456 40.832s34.944-2.816 40.832-19.488zM64 521.984l94.56 88.864c61.728 61.792 143.68 93.056 225.536 93.088s163.808-31.2 226.304-93.664c35.328-35.328 60.832-77.024 75.552-119.84 5.76-16.704-3.136-34.912-19.872-40.672s-34.912 3.136-40.672 19.872c-11.552 33.6-31.776 66.912-60.256 95.392-50.016 49.984-115.488 74.944-181.024 74.944s-131.008-25.024-181.728-75.712l-89.6-84.256h111.2c17.664 0 32-14.336 32-32s-14.336-32-32-32h-191.904c-0.16 0-0.288 0-0.448 0-4.384 0.032-8.576 0.992-12.352 2.624-3.808 1.632-7.328 4.032-10.368 7.2-0.384 0.416-0.768 0.832-1.152 1.248-2.4 2.784-4.256 5.856-5.536 9.12s-2.048 6.752-2.208 10.432c-0.032 0.48-0.032 0.928-0.032 1.376v192c0 17.664 14.336 32 32 32s32-14.336 32-32z"></path>
</svg>
