<!-- Generated by IcoMoon.io -->
<svg version="1.1" xmlns="http://www.w3.org/2000/svg" width="768" height="768" viewBox="0 0 768 768">
<title></title>
<g id="icomoon-ignore">
</g>
<path d="M464 352c22.080 0 42.112-8.96 56.576-23.424s23.424-34.496 23.424-56.576v-160c0-22.080-8.96-42.112-23.424-56.576s-34.496-23.424-56.576-23.424-42.112 8.96-56.576 23.424-23.424 34.496-23.424 56.576v160c0 22.080 8.96 42.112 23.424 56.576s34.496 23.424 56.576 23.424zM464 288c-4.48 0-8.448-1.76-11.328-4.672s-4.672-6.848-4.672-11.328v-160c0-4.48 1.76-8.448 4.672-11.328s6.848-4.672 11.328-4.672 8.448 1.76 11.328 4.672 4.672 6.848 4.672 11.328v160c0 4.48-1.76 8.448-4.672 11.328s-6.848 4.672-11.328 4.672zM656 352c22.080 0 42.112-8.96 56.576-23.424s23.424-34.496 23.424-56.576-8.96-42.112-23.424-56.576-34.496-23.424-56.576-23.424-42.112 8.96-56.576 23.424-23.424 34.496-23.424 56.576v48c0 17.664 14.336 32 32 32zM656 288h-16v-16c0-4.48 1.76-8.448 4.672-11.328s6.848-4.672 11.328-4.672 8.448 1.76 11.328 4.672 4.672 6.848 4.672 11.328-1.76 8.448-4.672 11.328-6.848 4.672-11.328 4.672zM304 416c-22.080 0-42.112 8.96-56.576 23.424s-23.424 34.496-23.424 56.576v160c0 22.080 8.96 42.112 23.424 56.576s34.496 23.424 56.576 23.424 42.112-8.96 56.576-23.424 23.424-34.496 23.424-56.576v-160c0-22.080-8.96-42.112-23.424-56.576s-34.496-23.424-56.576-23.424zM304 480c4.48 0 8.448 1.76 11.328 4.672s4.672 6.848 4.672 11.328v160c0 4.48-1.76 8.448-4.672 11.328s-6.848 4.672-11.328 4.672-8.448-1.76-11.328-4.672-4.672-6.848-4.672-11.328v-160c0-4.48 1.76-8.448 4.672-11.328s6.848-4.672 11.328-4.672zM112 416c-22.080 0-42.112 8.96-56.576 23.424s-23.424 34.496-23.424 56.576 8.96 42.112 23.424 56.576 34.496 23.424 56.576 23.424 42.112-8.96 56.576-23.424 23.424-34.496 23.424-56.576v-48c0-17.664-14.336-32-32-32zM112 480h16v16c0 4.48-1.76 8.448-4.672 11.328s-6.848 4.672-11.328 4.672-8.448-1.76-11.328-4.672-4.672-6.848-4.672-11.328 1.76-8.448 4.672-11.328 6.848-4.672 11.328-4.672zM416 464c0 22.080 8.96 42.112 23.424 56.576s34.496 23.424 56.576 23.424h160c22.080 0 42.112-8.96 56.576-23.424s23.424-34.496 23.424-56.576-8.96-42.112-23.424-56.576-34.496-23.424-56.576-23.424h-160c-22.080 0-42.112 8.96-56.576 23.424s-23.424 34.496-23.424 56.576zM480 464c0-4.48 1.76-8.448 4.672-11.328s6.848-4.672 11.328-4.672h160c4.48 0 8.448 1.76 11.328 4.672s4.672 6.848 4.672 11.328-1.76 8.448-4.672 11.328-6.848 4.672-11.328 4.672h-160c-4.48 0-8.448-1.76-11.328-4.672s-4.672-6.848-4.672-11.328zM496 640c4.48 0 8.448 1.76 11.328 4.672s4.672 6.848 4.672 11.328-1.76 8.448-4.672 11.328-6.848 4.672-11.328 4.672-8.448-1.76-11.328-4.672-4.672-6.848-4.672-11.328v-16zM496 576h-48c-17.664 0-32 14.336-32 32v48c0 22.080 8.96 42.112 23.424 56.576s34.496 23.424 56.576 23.424 42.112-8.96 56.576-23.424 23.424-34.496 23.424-56.576-8.96-42.112-23.424-56.576-34.496-23.424-56.576-23.424zM288 304c0 4.48-1.76 8.448-4.672 11.328s-6.848 4.672-11.328 4.672h-160c-4.48 0-8.448-1.76-11.328-4.672s-4.672-6.848-4.672-11.328 1.76-8.448 4.672-11.328 6.848-4.672 11.328-4.672h160c4.48 0 8.448 1.76 11.328 4.672s4.672 6.848 4.672 11.328zM352 304c0-22.080-8.96-42.112-23.424-56.576s-34.496-23.424-56.576-23.424h-160c-22.080 0-42.112 8.96-56.576 23.424s-23.424 34.496-23.424 56.576 8.96 42.112 23.424 56.576 34.496 23.424 56.576 23.424h160c22.080 0 42.112-8.96 56.576-23.424s23.424-34.496 23.424-56.576zM272 128c-4.48 0-8.448-1.76-11.328-4.672s-4.672-6.848-4.672-11.328 1.76-8.448 4.672-11.328 6.848-4.672 11.328-4.672 8.448 1.76 11.328 4.672 4.672 6.848 4.672 11.328v16zM272 192h48c17.664 0 32-14.336 32-32v-48c0-22.080-8.96-42.112-23.424-56.576s-34.496-23.424-56.576-23.424-42.112 8.96-56.576 23.424-23.424 34.496-23.424 56.576 8.96 42.112 23.424 56.576 34.496 23.424 56.576 23.424z"></path>
</svg>
